# xmcd
#
# Track frame offsets:
#	150
#	21427
#	48225
#	69385
#	89937
#	115627
#	138307
#	155210
#	180300
#	193645
#	211967
#	224292
#	235345
#	247355
#	262122
#
# Disc length: 3835
#
# Revision: 1
# Processed by: cddbd v1.5.1PL0 Copyright (c) Steve Scherf et al.
# Submitted via: ExactAudioCopy v0.95a4
# Normalized: r0:TDELIM( - )
#
DISCID=e70ef90f
DTITLE=Various Artist - Rhythm and Soul n°22
DYEAR=2000
DGENRE=Soul
TTITLE0=Earth, Wind and Fire - Boogie Wonderland
TTITLE1=Incognito - Colibri
TTITLE2=Patrice Rushen - Forget Me Nots
TTITLE3=Brian McKnight - On The Down Low
TTITLE4=C C Music Factory - I Found Love
TTITLE5=De La Soul - Ring Ring Ring (Ha Ha Hey)
TTITLE6=Ashford and Simpson - Babies
TTITLE7=The Isley Brothers - That Lady
TTITLE8=Big Joe Turner - Shake, Rattle And Roll
TTITLE9=Wilson Pickett - Hey Jude
TTITLE10=James Brown - Please, Please, Please
TTITLE11=Ann Peebles - I Can't Stand The Rain
TTITLE12=The Drifters - Under The Boardwalk
TTITLE13=The Commodores - Just To Be Close To You
TTITLE14=Kool and The gang - Cherish
EXTD=
EXTT0=
EXTT1=
EXTT2=
EXTT3=
EXTT4=
EXTT5=
EXTT6=
EXTT7=
EXTT8=
EXTT9=
EXTT10=
EXTT11=
EXTT12=
EXTT13=
EXTT14=
PLAYORDER=
